<svg width="136" height="32" viewBox="0 0 136 32" fill="none" xmlns="http://www.w3.org/2000/svg">
<path d="M0.205049 24.3933C-0.130008 24.8324 -0.0457128 25.4599 0.393327 25.795L7.54789 31.255C7.98693 31.5901 8.61446 31.5058 8.94951 31.0667C9.28457 30.6277 9.20027 30.0002 8.76123 29.6651L2.40162 24.8117L7.25501 18.4521C7.59007 18.0131 7.50577 17.3855 7.06673 17.0505C6.62769 16.7154 6.00017 16.7997 5.66511 17.2388L0.205049 24.3933ZM135.795 7.60667C136.13 7.16764 136.046 6.54011 135.607 6.20505L128.452 0.74499C128.013 0.409933 127.386 0.494228 127.05 0.933269C126.715 1.37231 126.8 1.99984 127.239 2.33489L133.598 7.18828L128.745 13.5479C128.41 13.9869 128.494 14.6145 128.933 14.9495C129.372 15.2846 130 15.2003 130.335 14.7612L135.795 7.60667ZM1.13313 25.9911L135.133 7.9911L134.867 6.0089L0.866867 24.0089L1.13313 25.9911Z" fill="#0077FF"/>
</svg>
