<svg width="1224" height="463" viewBox="0 0 1224 463" fill="none" xmlns="http://www.w3.org/2000/svg">
<path d="M126 343L82.2 263.5H69.9V343H18.6V132.4H104.7C121.3 132.4 135.4 135.3 147 141.1C158.8 146.9 167.6 154.9 173.4 165.1C179.2 175.1 182.1 186.3 182.1 198.7C182.1 212.7 178.1 225.2 170.1 236.2C162.3 247.2 150.7 255 135.3 259.6L183.9 343H126ZM69.9 227.2H101.7C111.1 227.2 118.1 224.9 122.7 220.3C127.5 215.7 129.9 209.2 129.9 200.8C129.9 192.8 127.5 186.5 122.7 181.9C118.1 177.3 111.1 175 101.7 175H69.9V227.2ZM290.503 345.4C274.103 345.4 259.303 341.9 246.103 334.9C233.103 327.9 222.803 317.9 215.203 304.9C207.803 291.9 204.103 276.7 204.103 259.3C204.103 242.1 207.903 227 215.503 214C223.103 200.8 233.503 190.7 246.703 183.7C259.903 176.7 274.703 173.2 291.103 173.2C307.503 173.2 322.303 176.7 335.503 183.7C348.703 190.7 359.103 200.8 366.703 214C374.303 227 378.103 242.1 378.103 259.3C378.103 276.5 374.203 291.7 366.403 304.9C358.803 317.9 348.303 327.9 334.903 334.9C321.703 341.9 306.903 345.4 290.503 345.4ZM290.503 301C300.303 301 308.603 297.4 315.403 290.2C322.403 283 325.903 272.7 325.903 259.3C325.903 245.9 322.503 235.6 315.703 228.4C309.103 221.2 300.903 217.6 291.103 217.6C281.103 217.6 272.803 221.2 266.203 228.4C259.603 235.4 256.303 245.7 256.303 259.3C256.303 272.7 259.503 283 265.903 290.2C272.503 297.4 280.703 301 290.503 301ZM618.919 173.8C639.719 173.8 656.219 180.1 668.419 192.7C680.819 205.3 687.019 222.8 687.019 245.2V343H636.019V252.1C636.019 241.3 633.119 233 627.319 227.2C621.719 221.2 613.919 218.2 603.919 218.2C593.919 218.2 586.019 221.2 580.219 227.2C574.619 233 571.819 241.3 571.819 252.1V343H520.819V252.1C520.819 241.3 517.919 233 512.119 227.2C506.519 221.2 498.719 218.2 488.719 218.2C478.719 218.2 470.819 221.2 465.019 227.2C459.419 233 456.619 241.3 456.619 252.1V343H405.319V175.6H456.619V196.6C461.819 189.6 468.619 184.1 477.019 180.1C485.419 175.9 494.919 173.8 505.519 173.8C518.119 173.8 529.319 176.5 539.119 181.9C549.119 187.3 556.919 195 562.519 205C568.319 195.8 576.219 188.3 586.219 182.5C596.219 176.7 607.119 173.8 618.919 173.8Z" fill="#0077FF"/>
<path d="M126 343L124.248 343.965L124.818 345H126V343ZM82.2 263.5L83.9517 262.535L83.3816 261.5H82.2V263.5ZM69.9 263.5V261.5H67.9V263.5H69.9ZM69.9 343V345H71.9V343H69.9ZM18.6 343H16.6V345H18.6V343ZM18.6 132.4V130.4H16.6V132.4H18.6ZM147 141.1L146.106 142.889L146.118 142.895L147 141.1ZM173.4 165.1L171.661 166.089L171.666 166.096L171.67 166.103L173.4 165.1ZM170.1 236.2L168.483 235.024L168.475 235.033L168.469 235.043L170.1 236.2ZM135.3 259.6L134.728 257.684L132.292 258.411L133.572 260.607L135.3 259.6ZM183.9 343V345H187.38L185.628 341.993L183.9 343ZM69.9 227.2H67.9V229.2H69.9V227.2ZM122.7 220.3L121.316 218.856L121.301 218.871L121.286 218.886L122.7 220.3ZM122.7 181.9L121.286 183.314L121.301 183.329L121.316 183.344L122.7 181.9ZM69.9 175V173H67.9V175H69.9ZM127.752 342.035L83.9517 262.535L80.4483 264.465L124.248 343.965L127.752 342.035ZM82.2 261.5H69.9V265.5H82.2V261.5ZM67.9 263.5V343H71.9V263.5H67.9ZM69.9 341H18.6V345H69.9V341ZM20.6 343V132.4H16.6V343H20.6ZM18.6 134.4H104.7V130.4H18.6V134.4ZM104.7 134.4C121.074 134.4 134.85 137.261 146.106 142.889L147.894 139.311C135.95 133.339 121.526 130.4 104.7 130.4V134.4ZM146.118 142.895C157.603 148.54 166.083 156.278 171.661 166.089L175.139 164.111C169.117 153.522 159.997 145.26 147.882 139.305L146.118 142.895ZM171.67 166.103C177.28 175.776 180.1 186.626 180.1 198.7H184.1C184.1 185.974 181.12 174.424 175.13 164.097L171.67 166.103ZM180.1 198.7C180.1 212.291 176.226 224.376 168.483 235.024L171.717 237.376C179.974 226.024 184.1 213.109 184.1 198.7H180.1ZM168.469 235.043C160.974 245.612 149.785 253.186 134.728 257.684L135.872 261.516C151.615 256.814 163.626 248.787 171.731 237.357L168.469 235.043ZM133.572 260.607L182.172 344.007L185.628 341.993L137.028 258.593L133.572 260.607ZM183.9 341H126V345H183.9V341ZM69.9 229.2H101.7V225.2H69.9V229.2ZM101.7 229.2C111.394 229.2 119 226.829 124.114 221.714L121.286 218.886C117.2 222.971 110.806 225.2 101.7 225.2V229.2ZM124.084 221.744C129.375 216.673 131.9 209.593 131.9 200.8H127.9C127.9 208.807 125.625 214.727 121.316 218.856L124.084 221.744ZM131.9 200.8C131.9 192.374 129.356 185.509 124.084 180.456L121.316 183.344C125.644 187.491 127.9 193.226 127.9 200.8H131.9ZM124.114 180.486C119 175.371 111.394 173 101.7 173V177C110.806 177 117.2 179.229 121.286 183.314L124.114 180.486ZM101.7 173H69.9V177H101.7V173ZM67.9 175V227.2H71.9V175H67.9ZM246.103 334.9L245.155 336.661L245.166 336.667L246.103 334.9ZM215.203 304.9L213.465 305.889L213.471 305.899L213.477 305.909L215.203 304.9ZM215.503 214L217.23 215.009L217.236 214.998L215.503 214ZM246.703 183.7L247.64 185.467L247.64 185.467L246.703 183.7ZM335.503 183.7L334.566 185.467L334.566 185.467L335.503 183.7ZM366.703 214L364.97 214.998L364.977 215.009L366.703 214ZM366.403 304.9L364.681 303.883L364.677 303.891L366.403 304.9ZM334.903 334.9L333.977 333.127L333.966 333.133L334.903 334.9ZM315.403 290.2L313.969 288.806L313.959 288.816L313.949 288.827L315.403 290.2ZM315.703 228.4L314.229 229.751L314.239 229.762L314.249 229.773L315.703 228.4ZM266.203 228.4L267.658 229.772L267.668 229.762L267.677 229.751L266.203 228.4ZM265.903 290.2L264.408 291.529L264.418 291.54L264.429 291.551L265.903 290.2ZM290.503 343.4C274.397 343.4 259.924 339.965 247.04 333.133L245.166 336.667C258.682 343.835 273.809 347.4 290.503 347.4V343.4ZM247.051 333.139C234.382 326.317 224.348 316.58 216.93 303.891L213.477 305.909C221.258 319.22 231.825 329.483 245.155 336.661L247.051 333.139ZM216.941 303.911C209.739 291.258 206.103 276.41 206.103 259.3H202.103C202.103 276.99 205.867 292.542 213.465 305.889L216.941 303.911ZM206.103 259.3C206.103 242.403 209.833 227.662 217.23 215.009L213.777 212.991C205.973 226.338 202.103 241.797 202.103 259.3H206.103ZM217.236 214.998C224.652 202.117 234.779 192.287 247.64 185.467L245.766 181.933C232.227 189.113 221.554 199.483 213.77 213.002L217.236 214.998ZM247.64 185.467C260.524 178.635 274.997 175.2 291.103 175.2V171.2C274.409 171.2 259.282 174.765 245.766 181.933L247.64 185.467ZM291.103 175.2C307.209 175.2 321.682 178.635 334.566 185.467L336.44 181.933C322.924 174.765 307.797 171.2 291.103 171.2V175.2ZM334.566 185.467C347.427 192.287 357.554 202.117 364.97 214.998L368.436 213.002C360.652 199.483 349.979 189.113 336.44 181.933L334.566 185.467ZM364.977 215.009C372.373 227.662 376.103 242.403 376.103 259.3H380.103C380.103 241.797 376.233 226.338 368.43 212.991L364.977 215.009ZM376.103 259.3C376.103 276.187 372.278 291.027 364.681 303.883L368.125 305.917C376.129 292.373 380.103 276.813 380.103 259.3H376.103ZM364.677 303.891C357.267 316.565 347.045 326.301 333.977 333.127L335.829 336.673C349.561 329.499 360.339 319.235 368.13 305.909L364.677 303.891ZM333.966 333.133C321.082 339.965 306.609 343.4 290.503 343.4V347.4C307.197 347.4 322.324 343.835 335.84 336.667L333.966 333.133ZM290.503 303C300.86 303 309.684 299.168 316.857 291.573L313.949 288.827C307.522 295.632 299.746 299 290.503 299V303ZM316.837 291.594C324.308 283.91 327.903 273.042 327.903 259.3H323.903C323.903 272.358 320.498 282.09 313.969 288.806L316.837 291.594ZM327.903 259.3C327.903 245.573 324.416 234.713 317.157 227.027L314.249 229.773C320.59 236.487 323.903 246.227 323.903 259.3H327.903ZM317.177 227.049C310.197 219.434 301.462 215.6 291.103 215.6V219.6C300.345 219.6 308.009 222.966 314.229 229.751L317.177 227.049ZM291.103 215.6C280.558 215.6 271.718 219.424 264.729 227.049L267.677 229.751C273.888 222.976 281.649 219.6 291.103 219.6V215.6ZM264.748 227.028C257.676 234.529 254.303 245.401 254.303 259.3H258.303C258.303 245.999 261.53 236.271 267.658 229.772L264.748 227.028ZM254.303 259.3C254.303 272.998 257.575 283.841 264.408 291.529L267.398 288.871C261.431 282.159 258.303 272.402 258.303 259.3H254.303ZM264.429 291.551C271.409 299.166 280.145 303 290.503 303V299C281.262 299 273.597 295.634 267.377 288.849L264.429 291.551ZM668.419 192.7L666.982 194.091L666.988 194.097L666.993 194.103L668.419 192.7ZM687.019 343V345H689.019V343H687.019ZM636.019 343H634.019V345H636.019V343ZM627.319 227.2L625.857 228.565L625.88 228.59L625.905 228.614L627.319 227.2ZM580.219 227.2L578.781 225.81L578.78 225.811L580.219 227.2ZM571.819 343V345H573.819V343H571.819ZM520.819 343H518.819V345H520.819V343ZM512.119 227.2L510.657 228.565L510.68 228.59L510.705 228.614L512.119 227.2ZM465.019 227.2L463.581 225.81L463.58 225.811L465.019 227.2ZM456.619 343V345H458.619V343H456.619ZM405.319 343H403.319V345H405.319V343ZM405.319 175.6V173.6H403.319V175.6H405.319ZM456.619 175.6H458.619V173.6H456.619V175.6ZM456.619 196.6H454.619V202.646L458.224 197.793L456.619 196.6ZM477.019 180.1L477.879 181.906L477.896 181.897L477.913 181.889L477.019 180.1ZM539.119 181.9L538.154 183.652L538.161 183.656L538.168 183.66L539.119 181.9ZM562.519 205L560.774 205.977L562.417 208.912L564.211 206.067L562.519 205ZM618.919 175.8C639.286 175.8 655.228 181.952 666.982 194.091L669.856 191.309C657.209 178.248 640.152 171.8 618.919 171.8V175.8ZM666.993 194.103C678.933 206.236 685.019 223.178 685.019 245.2H689.019C689.019 222.422 682.704 204.364 669.844 191.297L666.993 194.103ZM685.019 245.2V343H689.019V245.2H685.019ZM687.019 341H636.019V345H687.019V341ZM638.019 343V252.1H634.019V343H638.019ZM638.019 252.1C638.019 240.944 635.016 232.068 628.733 225.786L625.905 228.614C631.222 233.932 634.019 241.656 634.019 252.1H638.019ZM628.781 225.835C622.722 219.344 614.343 216.2 603.919 216.2V220.2C613.495 220.2 620.716 223.056 625.857 228.565L628.781 225.835ZM603.919 216.2C593.492 216.2 585.031 219.344 578.781 225.81L581.657 228.59C587.006 223.056 594.345 220.2 603.919 220.2V216.2ZM578.78 225.811C572.712 232.096 569.819 240.962 569.819 252.1H573.819C573.819 241.638 576.526 233.904 581.658 228.589L578.78 225.811ZM569.819 252.1V343H573.819V252.1H569.819ZM571.819 341H520.819V345H571.819V341ZM522.819 343V252.1H518.819V343H522.819ZM522.819 252.1C522.819 240.944 519.816 232.068 513.533 225.786L510.705 228.614C516.022 233.932 518.819 241.656 518.819 252.1H522.819ZM513.581 225.835C507.522 219.344 499.143 216.2 488.719 216.2V220.2C498.295 220.2 505.516 223.056 510.657 228.565L513.581 225.835ZM488.719 216.2C478.292 216.2 469.831 219.344 463.581 225.81L466.457 228.59C471.806 223.056 479.145 220.2 488.719 220.2V216.2ZM463.58 225.811C457.511 232.096 454.619 240.962 454.619 252.1H458.619C458.619 241.638 461.326 233.904 466.458 228.589L463.58 225.811ZM454.619 252.1V343H458.619V252.1H454.619ZM456.619 341H405.319V345H456.619V341ZM407.319 343V175.6H403.319V343H407.319ZM405.319 177.6H456.619V173.6H405.319V177.6ZM454.619 175.6V196.6H458.619V175.6H454.619ZM458.224 197.793C463.217 191.072 469.753 185.775 477.879 181.906L476.159 178.294C467.484 182.425 460.421 188.128 455.013 195.407L458.224 197.793ZM477.913 181.889C486.002 177.845 495.189 175.8 505.519 175.8V171.8C494.649 171.8 484.836 173.955 476.124 178.311L477.913 181.889ZM505.519 175.8C517.824 175.8 528.685 178.434 538.154 183.652L540.084 180.148C529.953 174.566 518.413 171.8 505.519 171.8V175.8ZM538.168 183.66C547.832 188.878 555.357 196.305 560.774 205.977L564.264 204.023C558.48 193.695 550.406 185.722 540.069 180.14L538.168 183.66ZM564.211 206.067C569.827 197.157 577.484 189.878 587.222 184.23L585.215 180.77C574.954 186.722 566.81 194.443 560.827 203.933L564.211 206.067ZM587.222 184.23C596.911 178.611 607.464 175.8 618.919 175.8V171.8C606.774 171.8 595.527 174.789 585.215 180.77L587.222 184.23Z" fill="#0077FF"/>
<rect x="715" width="509" height="386" rx="30" fill="#0077FF"/>
<path d="M739.4 259.3C739.4 241.9 742.9 226.7 749.9 213.7C757.1 200.7 767 190.7 779.6 183.7C792.4 176.7 807 173.2 823.4 173.2C844.4 173.2 861.9 178.7 875.9 189.7C890.1 200.7 899.4 216.2 903.8 236.2H849.2C844.6 223.4 835.7 217 822.5 217C813.1 217 805.6 220.7 800 228.1C794.4 235.3 791.6 245.7 791.6 259.3C791.6 272.9 794.4 283.4 800 290.8C805.6 298 813.1 301.6 822.5 301.6C835.7 301.6 844.6 295.2 849.2 282.4H903.8C899.4 302 890.1 317.4 875.9 328.6C861.7 339.8 844.2 345.4 823.4 345.4C807 345.4 792.4 341.9 779.6 334.9C767 327.9 757.1 317.9 749.9 304.9C742.9 291.9 739.4 276.7 739.4 259.3ZM1034.14 173.8C1053.34 173.8 1068.74 180.2 1080.34 193C1091.94 205.6 1097.74 223 1097.74 245.2V343H1046.74V252.1C1046.74 240.9 1043.84 232.2 1038.04 226C1032.24 219.8 1024.44 216.7 1014.64 216.7C1004.84 216.7 997.041 219.8 991.241 226C985.441 232.2 982.541 240.9 982.541 252.1V343H931.241V121H982.541V198.1C987.741 190.7 994.841 184.8 1003.84 180.4C1012.84 176 1022.94 173.8 1034.14 173.8ZM1159.19 158.2C1150.19 158.2 1142.79 155.6 1136.99 150.4C1131.39 145 1128.59 138.4 1128.59 130.6C1128.59 122.6 1131.39 116 1136.99 110.8C1142.79 105.4 1150.19 102.7 1159.19 102.7C1167.99 102.7 1175.19 105.4 1180.79 110.8C1186.59 116 1189.49 122.6 1189.49 130.6C1189.49 138.4 1186.59 145 1180.79 150.4C1175.19 155.6 1167.99 158.2 1159.19 158.2ZM1184.69 175.6V343H1133.39V175.6H1184.69Z" fill="white"/>
</svg>
