<svg width="16" height="229" viewBox="0 0 16 229" fill="none" xmlns="http://www.w3.org/2000/svg">
<path d="M7.53703 227.966C7.92756 228.356 8.56072 228.356 8.95125 227.966L15.3152 221.602C15.7057 221.211 15.7057 220.578 15.3152 220.188C14.9247 219.797 14.2915 219.797 13.901 220.188L8.24414 225.845L2.58729 220.188C2.19676 219.797 1.5636 219.797 1.17307 220.188C0.782548 220.578 0.782548 221.211 1.17307 221.602L7.53703 227.966ZM8.95125 0.802643C8.56072 0.412125 7.92756 0.412125 7.53703 0.802643L1.17307 7.16661C0.782548 7.55713 0.782548 8.19029 1.17307 8.58083C1.5636 8.97134 2.19676 8.97134 2.58729 8.58083L8.24414 2.92397L13.901 8.58083C14.2915 8.97134 14.9247 8.97134 15.3152 8.58083C15.7057 8.19029 15.7057 7.55713 15.3152 7.16661L8.95125 0.802643ZM9.24414 227.259L9.24414 1.50975H7.24414L7.24414 227.259H9.24414Z" fill="#00A0FA"/>
</svg>
