<svg width="213" height="16" viewBox="0 0 213 16" fill="none" xmlns="http://www.w3.org/2000/svg">
<path d="M0.292893 7.29289C-0.0976311 7.68342 -0.0976311 8.31658 0.292893 8.70711L6.65685 15.0711C7.04738 15.4616 7.68054 15.4616 8.07107 15.0711C8.46159 14.6805 8.46159 14.0474 8.07107 13.6569L2.41421 8L8.07107 2.34315C8.46159 1.95262 8.46159 1.31946 8.07107 0.928932C7.68054 0.538408 7.04738 0.538408 6.65685 0.928932L0.292893 7.29289ZM212.707 8.70711C213.098 8.31658 213.098 7.68342 212.707 7.29289L206.343 0.928932C205.953 0.538408 205.319 0.538408 204.929 0.928932C204.538 1.31946 204.538 1.95262 204.929 2.34315L210.586 8L204.929 13.6569C204.538 14.0474 204.538 14.6805 204.929 15.0711C205.319 15.4616 205.953 15.4616 206.343 15.0711L212.707 8.70711ZM1 9H212V7H1V9Z" fill="#00A0FA"/>
</svg>
