<svg width="166" height="77" viewBox="0 0 166 77" fill="none" xmlns="http://www.w3.org/2000/svg">
<path d="M83.5646 22.9118L79.1726 39.7598H74.2046L71.5166 28.6718L68.7326 39.7598H63.7646L59.4926 22.9118H63.8846L66.3086 35.1758L69.3086 22.9118H73.8206L76.7006 35.1758L79.1486 22.9118H83.5646ZM91.7188 39.9518C90.4068 39.9518 89.2228 39.6718 88.1668 39.1118C87.1268 38.5518 86.3028 37.7518 85.6948 36.7118C85.1028 35.6718 84.8068 34.4558 84.8068 33.0638C84.8068 31.6878 85.1108 30.4798 85.7188 29.4398C86.3268 28.3838 87.1588 27.5758 88.2148 27.0158C89.2708 26.4558 90.4548 26.1758 91.7668 26.1758C93.0788 26.1758 94.2628 26.4558 95.3188 27.0158C96.3748 27.5758 97.2068 28.3838 97.8148 29.4398C98.4228 30.4798 98.7268 31.6878 98.7268 33.0638C98.7268 34.4398 98.4148 35.6558 97.7908 36.7118C97.1828 37.7518 96.3428 38.5518 95.2708 39.1118C94.2148 39.6718 93.0308 39.9518 91.7188 39.9518ZM91.7188 36.3998C92.5028 36.3998 93.1668 36.1118 93.7108 35.5358C94.2708 34.9598 94.5508 34.1358 94.5508 33.0638C94.5508 31.9918 94.2788 31.1678 93.7348 30.5918C93.2068 30.0158 92.5508 29.7278 91.7668 29.7278C90.9668 29.7278 90.3028 30.0158 89.7748 30.5918C89.2468 31.1518 88.9828 31.9758 88.9828 33.0638C88.9828 34.1358 89.2388 34.9598 89.7508 35.5358C90.2788 36.1118 90.9348 36.3998 91.7188 36.3998ZM105.008 28.5998C105.488 27.8638 106.088 27.2878 106.808 26.8718C107.528 26.4398 108.328 26.2238 109.208 26.2238V30.5678H108.08C107.056 30.5678 106.288 30.7918 105.776 31.2398C105.264 31.6718 105.008 32.4398 105.008 33.5438V39.7598H100.904V26.3678H105.008V28.5998ZM119.354 39.7598L115.274 34.1438V39.7598H111.17V21.9998H115.274V31.8158L119.33 26.3678H124.394L118.826 33.0878L124.442 39.7598H119.354Z" fill="#0077FF"/>
<path d="M34.0325 14.5005C41.8644 8.27075 53.5032 12.8554 54.9824 22.7529L57.0462 36.5623C58.5254 46.4598 48.7356 54.247 39.4245 50.5792L26.4333 45.4619C17.1222 41.7941 15.2732 29.4223 23.1051 23.1925L34.0325 14.5005Z" fill="#0077FF"/>
<path d="M37.974 37.024H31.686L30.678 40H26.382L32.478 23.152H37.23L43.326 40H38.982L37.974 37.024ZM36.918 33.856L34.83 27.688L32.766 33.856H36.918ZM49.2854 23.152V40H45.1814V23.152H49.2854Z" fill="white"/>
</svg>
